<svg width="3748" height="3455" viewBox="0 0 3748 3455" fill="none" xmlns="http://www.w3.org/2000/svg">
<path fill-rule="evenodd" clip-rule="evenodd" d="M1608.29 2355.2C1600.52 2323.53 1607.08 2298.71 1607.08 2298.71C1607.08 2298.71 1614.67 2294.09 1619.41 2290.95C1628.76 2284.74 1634 2281.19 1642.56 2273.95C1653.1 2265.03 1658.59 2259.43 1667.53 2248.91C1673.19 2242.23 1676.2 2238.33 1681.15 2231.11C1687.65 2221.64 1690.82 2215.98 1696.11 2205.78L1696.47 2205.09V2205.08C1699.67 2198.92 1701.57 2195.24 1704.24 2188.61C1706.74 2182.41 1707.85 2178.74 1709.74 2172.49L1709.89 2171.98C1712.41 2163.64 1713.61 2158.89 1715.43 2150.36L1715.46 2150.23V2150.2C1715.67 2149.22 1715.87 2148.3 1716.05 2147.41C1717.38 2141.15 1718.21 2136.83 1718.99 2129.78C1720.01 2120.64 1720.04 2115.45 1719.99 2106.25C1719.93 2095.9 1719.7 2090.06 1718.42 2079.78C1717.12 2069.36 1715.92 2063.56 1713.35 2053.38C1710.51 2042.12 1708.5 2035.88 1704.25 2025.07C1699.7 2013.52 1696.86 2007.09 1690.63 1996.35C1686.22 1988.76 1683.41 1984.7 1678.22 1977.62C1672.07 1969.2 1668.39 1964.6 1661.28 1956.97C1654.88 1950.1 1651.02 1946.49 1643.92 1940.34C1637.42 1934.71 1633.57 1931.77 1626.62 1926.71L1626.27 1926.45C1625.41 1925.82 1624.59 1925.22 1623.8 1924.65C1618.3 1920.65 1614.41 1917.94 1607.85 1914.11C1601.89 1910.62 1598.44 1908.83 1592.17 1905.94C1584.86 1902.56 1580.63 1900.94 1573.01 1898.35C1561.48 1894.42 1554.79 1892.8 1542.83 1890.49C1534.86 1888.95 1530.34 1888.23 1522.26 1887.43C1511.75 1886.39 1505.79 1886.3 1495.23 1886.51C1484.29 1886.72 1478.09 1886.88 1467.27 1888.61C1460.43 1889.7 1456.56 1890.68 1450.02 1892.32L1449.35 1892.49C1437.72 1895.42 1431.23 1897.33 1420.04 1901.62C1412.36 1904.57 1408.08 1906.35 1400.72 1910.04C1394.39 1913.2 1390.94 1915.19 1384.9 1918.88C1379.59 1922.13 1376.66 1924.05 1371.59 1927.66C1367.26 1930.75 1364.86 1932.52 1360.76 1935.9C1356.8 1939.15 1354.68 1941.1 1350.94 1944.61C1347.64 1947.71 1345.77 1949.6 1342.75 1952.66V1952.67L1342.13 1953.3C1341.31 1954.13 1340.57 1954.87 1339.88 1955.56C1337.79 1957.64 1336.12 1959.31 1333.81 1961.98C1331.82 1964.28 1330.56 1965.95 1329.05 1967.93C1328.43 1968.75 1327.77 1969.63 1327 1970.63C1326.03 1971.87 1325.18 1972.96 1324.37 1973.98C1322.1 1976.85 1320.26 1979.2 1317.75 1982.83C1314.31 1987.82 1312.56 1990.75 1309.53 1996.01C1305.88 2002.37 1304 2006.05 1300.89 2012.7C1299.33 2016.02 1297.07 2021.28 1297.07 2021.28L1293.75 2029.85C1293.75 2029.85 1292 2034.76 1290.93 2037.91C1289.79 2041.25 1288.11 2046.48 1288.11 2046.48C1288.11 2046.48 1286.65 2051.98 1285.8 2055.53C1285.05 2058.66 1283.97 2063.57 1283.97 2063.57L1281.34 2080.63L1280.53 2089.65C1280.53 2089.65 1279.9 2099.1 1279.86 2105.17C1279.86 2105.17 1280.05 2117.98 1280.81 2126.15C1281.57 2134.37 1282.26 2138.97 1283.76 2147.09C1285.18 2154.74 1286.07 2159.02 1288.18 2166.5C1291.02 2176.61 1293.08 2182.17 1297.22 2191.81C1300.35 2199.12 1302.41 2203.09 1306.11 2210.13C1306.53 2210.92 1306.92 2211.67 1307.3 2212.38C1309.69 2216.95 1311.34 2220.11 1314.43 2224.95C1317.03 2229.02 1318.88 2231.49 1321.39 2234.85C1321.95 2235.6 1322.55 2236.4 1323.2 2237.27C1323.84 2238.13 1324.42 2238.92 1324.97 2239.66C1327.28 2242.81 1329.01 2245.15 1331.94 2248.58C1334.42 2251.49 1336.19 2253.3 1338.43 2255.61C1339.11 2256.31 1339.84 2257.06 1340.64 2257.9C1341.24 2258.52 1341.78 2259.09 1342.3 2259.63C1344.7 2262.14 1346.45 2263.98 1349.33 2266.72C1352.44 2269.67 1354.24 2271.26 1357.49 2274.04C1360.23 2276.38 1361.77 2277.69 1364.62 2279.89C1367.81 2282.37 1369.93 2283.83 1372.84 2285.84C1373.45 2286.26 1374.09 2286.7 1374.78 2287.18C1375.09 2287.4 1375.4 2287.61 1375.69 2287.81C1378.48 2289.75 1380.3 2291.01 1383.4 2292.99C1387.1 2295.36 1393.03 2298.79 1393.03 2298.79L1376.47 2483.19C1376.47 2483.19 1379.32 2517.35 1389.6 2535.92C1399.25 2553.34 1424.41 2573.18 1424.41 2573.18L2204.38 3054.61C2204.38 3054.61 2034.7 3161.57 2024.24 3166.49C2013.78 3171.4 1984.7 3179.52 1958.51 3179.89C1933.27 3180.26 1909.26 3175.37 1894.77 3169.26C1880.28 3163.14 1352.18 2820.28 1352.18 2820.28L1356.98 3044.73C1356.98 3044.73 1355.52 3068.27 1365 3092.57C1372.64 3112.14 1402.34 3131.28 1402.34 3131.28L1885.76 3426.01C1885.76 3426.01 1913.14 3443.59 1964.07 3439.83C1967.52 3439.58 1970.77 3439.38 1973.85 3439.18C1994.27 3437.91 2007.87 3437.06 2029.76 3424.43C2054.95 3409.88 2666.55 3080.73 2666.55 3080.73L1690.4 2476.47C1690.4 2476.47 1654.06 2444.65 1635.1 2416.14C1620.7 2394.49 1614.48 2380.45 1608.29 2355.2ZM1497.2 1978.49C1426.53 1980 1370.46 2038.52 1371.97 2109.2C1373.48 2179.87 1432 2235.94 1502.68 2234.43C1573.35 2232.92 1629.42 2174.4 1627.91 2103.72C1626.4 2033.04 1567.88 1976.98 1497.2 1978.49Z" fill="url(#paint0_linear_212_103)"/>
<path fill-rule="evenodd" clip-rule="evenodd" d="M2138.91 1098.93C2146.67 1130.6 2140.12 1155.41 2140.12 1155.41C2140.12 1155.41 2132.52 1160.03 2127.78 1163.18C2118.44 1169.38 2113.2 1172.94 2104.64 1180.18C2094.09 1189.1 2088.61 1194.69 2079.67 1205.22C2074 1211.89 2071 1215.8 2066.04 1223.01C2059.54 1232.48 2056.37 1238.14 2051.08 1248.34L2050.72 1249.04C2047.53 1255.2 2045.62 1258.88 2042.95 1265.52C2040.46 1271.71 2039.35 1275.38 2037.46 1281.63V1281.64L2037.3 1282.14C2034.78 1290.49 2033.58 1295.24 2031.76 1303.77L2031.74 1303.9L2031.73 1303.92C2031.52 1304.9 2031.33 1305.83 2031.14 1306.71C2029.82 1312.97 2028.99 1317.29 2028.2 1324.35C2027.19 1333.49 2027.16 1338.68 2027.21 1347.87C2027.26 1358.23 2027.49 1364.07 2028.77 1374.35C2030.07 1384.76 2031.27 1390.57 2033.84 1400.74C2036.68 1412 2038.69 1418.25 2042.95 1429.06C2047.49 1440.6 2050.33 1447.04 2056.56 1457.77C2060.97 1465.36 2063.79 1469.43 2068.97 1476.51C2075.13 1484.93 2078.8 1489.52 2085.91 1497.15C2092.31 1504.02 2096.18 1507.64 2103.27 1513.78C2109.78 1519.41 2113.62 1522.35 2120.57 1527.42L2120.92 1527.68C2121.79 1528.31 2122.61 1528.9 2123.39 1529.47C2128.9 1533.47 2132.78 1536.19 2139.34 1540.02C2145.3 1543.5 2148.75 1545.29 2155.02 1548.19C2162.33 1551.56 2166.57 1553.18 2174.19 1555.78C2185.71 1559.7 2192.41 1561.33 2204.36 1563.63C2212.34 1565.17 2216.85 1565.9 2224.93 1566.69C2235.44 1567.73 2241.4 1567.82 2251.96 1567.62C2262.91 1567.4 2269.11 1567.25 2279.92 1565.52C2286.76 1564.42 2290.64 1563.45 2297.17 1561.8L2297.84 1561.63C2309.47 1558.71 2315.96 1556.8 2327.15 1552.5C2334.84 1549.55 2339.12 1547.77 2346.48 1544.09C2352.8 1540.92 2356.26 1538.94 2362.29 1535.25C2367.61 1532 2370.53 1530.08 2375.61 1526.46C2379.93 1523.38 2382.33 1521.6 2386.43 1518.23C2390.39 1514.97 2392.51 1513.02 2396.25 1509.52C2399.55 1506.42 2401.43 1504.52 2404.44 1501.46L2404.45 1501.45L2405.07 1500.83C2405.88 1499.99 2406.62 1499.26 2407.31 1498.57C2409.4 1496.48 2411.07 1494.81 2413.38 1492.15C2415.37 1489.85 2416.64 1488.18 2418.14 1486.19C2418.76 1485.37 2419.43 1484.49 2420.2 1483.5C2421.16 1482.26 2422.02 1481.17 2422.82 1480.15C2425.09 1477.27 2426.94 1474.93 2429.44 1471.3C2432.88 1466.3 2434.64 1463.38 2437.66 1458.12C2441.32 1451.75 2443.19 1448.08 2446.3 1441.43C2447.86 1438.11 2450.12 1432.85 2450.12 1432.85L2453.44 1424.27C2453.44 1424.27 2455.19 1419.37 2456.27 1416.21C2457.4 1412.88 2459.08 1407.65 2459.08 1407.65C2459.08 1407.65 2460.54 1402.14 2461.39 1398.6C2462.14 1395.47 2463.22 1390.56 2463.22 1390.56L2465.86 1373.5L2466.66 1364.48C2466.66 1364.48 2467.3 1355.02 2467.33 1348.96C2467.33 1348.96 2467.14 1336.14 2466.38 1327.97C2465.62 1319.75 2464.94 1315.15 2463.43 1307.03C2462.02 1299.39 2461.12 1295.11 2459.02 1287.62C2456.17 1277.52 2454.11 1271.96 2449.97 1262.31C2446.84 1255 2444.78 1251.03 2441.08 1244C2440.66 1243.2 2440.27 1242.45 2439.9 1241.74C2437.51 1237.17 2435.85 1234.01 2432.76 1229.17C2430.17 1225.11 2428.31 1222.63 2425.8 1219.28C2425.24 1218.52 2424.64 1217.73 2423.99 1216.86C2423.36 1216 2422.77 1215.21 2422.23 1214.46C2419.91 1211.32 2418.18 1208.97 2415.25 1205.54C2412.77 1202.64 2411.01 1200.82 2408.76 1198.51C2408.08 1197.81 2407.35 1197.06 2406.55 1196.22C2405.96 1195.61 2405.41 1195.03 2404.89 1194.49C2402.5 1191.99 2400.74 1190.15 2397.86 1187.41C2394.76 1184.46 2392.95 1182.86 2389.7 1180.08C2386.96 1177.74 2385.42 1176.44 2382.57 1174.23C2379.38 1171.76 2377.26 1170.29 2374.35 1168.28C2373.74 1167.87 2373.11 1167.43 2372.42 1166.95C2372.1 1166.73 2371.8 1166.52 2371.51 1166.32C2368.71 1164.38 2366.89 1163.11 2363.79 1161.13C2360.09 1158.77 2354.16 1155.34 2354.16 1155.34L2370.72 970.94C2370.72 970.94 2367.88 936.771 2357.59 918.208C2347.94 900.789 2322.79 880.944 2322.79 880.944L1542.81 399.519C1542.81 399.519 1712.5 292.551 1722.96 287.64C1733.42 282.728 1762.49 274.61 1788.68 274.23C1813.92 273.865 1837.94 278.751 1852.43 284.869C1866.92 290.988 2395.02 633.842 2395.02 633.842L2390.21 409.393C2390.21 409.393 2391.67 385.857 2382.19 361.554C2374.55 341.989 2344.85 322.844 2344.85 322.844L1861.44 28.1181C1861.44 28.1181 1834.05 10.5319 1783.12 14.2905C1779.67 14.5453 1776.43 14.748 1773.34 14.9411C1752.92 16.2173 1739.32 17.0674 1717.44 29.6992C1692.24 44.2415 1080.64 373.4 1080.64 373.4L2056.79 977.656C2056.79 977.656 2093.13 1009.47 2112.1 1037.99C2126.5 1059.64 2132.72 1073.67 2138.91 1098.93ZM2249.99 1475.64C2320.67 1474.12 2376.74 1415.6 2375.22 1344.93C2373.71 1274.25 2315.19 1218.18 2244.51 1219.7C2173.84 1221.21 2117.77 1279.73 2119.28 1350.4C2120.79 1421.08 2179.31 1477.15 2249.99 1475.64Z" fill="url(#paint1_linear_212_103)"/>
<path fill-rule="evenodd" clip-rule="evenodd" d="M1197.57 1816.16C1220.96 1793.43 1245.68 1786.53 1245.68 1786.53C1245.68 1786.53 1253.51 1790.74 1258.62 1793.24C1268.7 1798.16 1274.42 1800.87 1285 1804.59C1298.02 1809.17 1305.63 1811.07 1319.23 1813.45C1327.85 1814.96 1332.74 1815.58 1341.47 1816.2C1352.93 1817.01 1359.42 1816.88 1370.89 1816.28L1371.67 1816.24H1371.68C1378.6 1815.88 1382.74 1815.66 1389.82 1814.6C1396.42 1813.62 1400.15 1812.72 1406.5 1811.18L1407.02 1811.06C1415.49 1809.01 1420.2 1807.64 1428.47 1804.89L1428.59 1804.85H1428.6L1428.62 1804.84C1429.57 1804.52 1430.47 1804.23 1431.32 1803.94C1437.39 1801.91 1441.54 1800.44 1448.02 1797.54C1456.42 1793.79 1460.91 1791.19 1468.82 1786.5C1477.72 1781.21 1482.64 1778.05 1490.85 1771.75C1499.18 1765.36 1503.58 1761.39 1511.06 1754.02C1519.33 1745.87 1523.7 1740.97 1530.86 1731.83C1538.53 1722.07 1542.63 1716.36 1548.74 1705.56C1553.05 1697.91 1555.14 1693.43 1558.62 1685.37C1562.77 1675.8 1564.87 1670.31 1567.85 1660.31C1570.53 1651.31 1571.7 1646.15 1573.41 1636.92C1574.97 1628.46 1575.56 1623.66 1576.41 1615.1L1576.46 1614.67C1576.56 1613.6 1576.66 1612.59 1576.76 1611.63C1577.42 1604.86 1577.79 1600.13 1577.78 1592.53C1577.77 1585.63 1577.56 1581.75 1576.89 1574.88C1576.1 1566.87 1575.35 1562.39 1573.73 1554.51C1571.29 1542.58 1569.3 1535.98 1565.24 1524.51C1562.53 1516.85 1560.87 1512.59 1557.46 1505.22C1553.04 1495.63 1550.1 1490.44 1544.58 1481.44C1538.86 1472.11 1535.58 1466.84 1528.62 1458.39C1524.21 1453.04 1521.41 1450.19 1516.69 1445.39H1516.68L1516.2 1444.9C1507.79 1436.35 1502.86 1431.72 1493.49 1424.24C1487.06 1419.1 1483.35 1416.31 1476.45 1411.83C1470.52 1407.97 1467.06 1406 1460.82 1402.66C1455.33 1399.73 1452.19 1398.17 1446.51 1395.63C1441.66 1393.46 1438.91 1392.29 1433.93 1390.46C1429.11 1388.69 1426.36 1387.85 1421.44 1386.4C1417.1 1385.12 1414.51 1384.47 1410.35 1383.41H1410.34L1409.49 1383.2C1408.35 1382.91 1407.35 1382.65 1406.4 1382.4C1403.55 1381.66 1401.26 1381.06 1397.79 1380.42C1394.8 1379.86 1392.72 1379.62 1390.25 1379.33C1389.23 1379.21 1388.13 1379.08 1386.88 1378.92C1385.33 1378.71 1383.95 1378.52 1382.66 1378.35C1379.04 1377.85 1376.08 1377.44 1371.68 1377.12C1365.63 1376.68 1362.22 1376.65 1356.16 1376.7C1348.82 1376.77 1344.7 1377.01 1337.39 1377.69C1333.73 1378.03 1328.05 1378.74 1328.05 1378.74L1318.98 1380.22C1318.98 1380.22 1313.86 1381.19 1310.59 1381.86C1307.15 1382.57 1301.78 1383.77 1301.78 1383.77C1301.78 1383.77 1296.3 1385.3 1292.81 1386.36C1289.73 1387.29 1284.95 1388.85 1284.95 1388.85L1268.9 1395.21L1260.71 1399.08C1260.71 1399.08 1252.24 1403.32 1246.99 1406.36C1246.99 1406.36 1236.04 1413.01 1229.38 1417.8C1222.67 1422.62 1219.05 1425.53 1212.81 1430.94C1206.93 1436.03 1203.69 1438.97 1198.3 1444.57C1191.03 1452.14 1187.27 1456.73 1181.05 1465.18C1176.33 1471.59 1173.95 1475.37 1169.75 1482.12C1169.28 1482.89 1168.83 1483.6 1168.41 1484.29C1165.68 1488.66 1163.79 1491.69 1161.18 1496.8C1158.99 1501.09 1157.79 1503.95 1156.17 1507.81C1155.8 1508.68 1155.42 1509.6 1154.99 1510.6C1154.57 1511.58 1154.19 1512.48 1153.82 1513.33C1152.28 1516.92 1151.13 1519.6 1149.66 1523.86C1148.41 1527.47 1147.74 1529.91 1146.88 1533.01C1146.62 1533.96 1146.34 1534.96 1146.03 1536.08C1145.8 1536.91 1145.58 1537.67 1145.37 1538.39C1144.42 1541.72 1143.73 1544.17 1142.82 1548.04C1141.85 1552.21 1141.39 1554.57 1140.63 1558.79C1140 1562.33 1139.66 1564.32 1139.2 1567.89C1138.68 1571.9 1138.49 1574.47 1138.23 1578C1138.18 1578.73 1138.12 1579.5 1138.05 1580.34C1138.03 1580.72 1138 1581.09 1137.97 1581.44C1137.71 1584.84 1137.54 1587.05 1137.4 1590.72C1137.24 1595.11 1137.28 1601.96 1137.28 1601.96L969.862 1681.01C969.862 1681.01 941.835 1700.75 931.03 1719.02C920.891 1736.16 916.507 1767.9 916.507 1767.9L896.065 2684.26C896.065 2684.26 717.925 2592.05 708.396 2585.51C698.866 2578.98 677.149 2558.01 663.564 2535.61C650.477 2514.03 642.535 2490.85 640.478 2475.25C638.421 2459.66 666.834 1830.67 666.834 1830.67L475.687 1948.41C475.687 1948.41 454.648 1959.06 438.489 1979.54C425.48 1996.03 424 2031.34 424 2031.34L414.48 2597.43C414.48 2597.43 413.172 2629.95 442.191 2671.97C444.158 2674.82 445.975 2677.51 447.704 2680.08C459.139 2697.04 466.755 2708.34 488.726 2720.82C514.02 2735.19 1107.45 3096.08 1107.45 3096.08L1134.54 1948.36C1134.54 1948.36 1143.59 1900.91 1158.59 1870.12C1169.97 1846.75 1178.93 1834.28 1197.57 1816.16ZM1466.25 1529.69C1429.17 1469.5 1350.32 1450.76 1290.13 1487.84C1229.94 1524.91 1211.21 1603.76 1248.28 1663.95C1285.36 1724.14 1364.21 1742.88 1424.4 1705.8C1484.59 1668.73 1503.32 1589.88 1466.25 1529.69Z" fill="url(#paint2_linear_212_103)"/>
<path fill-rule="evenodd" clip-rule="evenodd" d="M2549.62 1637.97C2526.23 1660.69 2501.51 1667.6 2501.51 1667.6C2501.51 1667.6 2493.69 1663.39 2488.57 1660.89C2478.49 1655.97 2472.78 1653.25 2462.2 1649.53C2449.17 1644.96 2441.57 1643.05 2427.96 1640.67C2419.34 1639.16 2414.45 1638.55 2405.72 1637.93C2394.26 1637.12 2387.78 1637.24 2376.31 1637.84L2375.52 1637.88C2368.59 1638.25 2364.45 1638.47 2357.37 1639.52C2350.77 1640.51 2347.04 1641.41 2340.7 1642.94H2340.69L2340.18 1643.07C2331.71 1645.11 2327 1646.48 2318.73 1649.23L2318.6 1649.28L2318.57 1649.29C2317.62 1649.6 2316.73 1649.9 2315.87 1650.19C2309.8 1652.21 2305.65 1653.69 2299.17 1656.58C2290.78 1660.33 2286.28 1662.93 2278.38 1667.63C2269.47 1672.92 2264.56 1676.07 2256.34 1682.38C2248.01 1688.77 2243.61 1692.74 2236.14 1700.11C2227.86 1708.26 2223.5 1713.15 2216.33 1722.29C2208.67 1732.06 2204.56 1737.76 2198.46 1748.57C2194.14 1756.21 2192.06 1760.7 2188.57 1768.75C2184.43 1778.32 2182.33 1783.82 2179.34 1793.81C2176.66 1802.81 2175.49 1807.97 2173.79 1817.2C2172.22 1825.66 2171.63 1830.46 2170.78 1839.02L2170.74 1839.46C2170.63 1840.52 2170.53 1841.53 2170.44 1842.5C2169.78 1849.27 2169.4 1853.99 2169.42 1861.59C2169.43 1868.49 2169.63 1872.37 2170.31 1879.25C2171.1 1887.26 2171.84 1891.73 2173.46 1899.62C2175.91 1911.55 2177.89 1918.14 2181.96 1929.62C2184.67 1937.28 2186.33 1941.53 2189.73 1948.91C2194.15 1958.5 2197.09 1963.68 2202.61 1972.68C2208.34 1982.02 2211.61 1987.29 2218.57 1995.74C2222.98 2001.08 2225.78 2003.93 2230.51 2008.73V2008.74L2230.99 2009.23C2239.4 2017.78 2244.33 2022.41 2253.7 2029.89C2260.14 2035.02 2263.84 2037.81 2270.74 2042.3C2276.68 2046.15 2280.13 2048.12 2286.37 2051.46C2291.86 2054.4 2295 2055.95 2300.69 2058.5C2305.54 2060.67 2308.28 2061.84 2313.27 2063.67C2318.08 2065.43 2320.83 2066.27 2325.75 2067.72C2330.09 2069.01 2332.68 2069.66 2336.84 2070.71H2336.85L2337.71 2070.93C2338.84 2071.21 2339.85 2071.48 2340.79 2071.72C2343.64 2072.47 2345.93 2073.07 2349.4 2073.71C2352.39 2074.26 2354.47 2074.51 2356.94 2074.8C2357.97 2074.92 2359.06 2075.05 2360.31 2075.21C2361.87 2075.41 2363.24 2075.6 2364.53 2075.78C2368.16 2076.28 2371.11 2076.68 2375.51 2077C2381.56 2077.44 2384.97 2077.48 2391.04 2077.42C2398.38 2077.36 2402.5 2077.11 2409.81 2076.43C2413.46 2076.09 2419.14 2075.38 2419.14 2075.38L2428.21 2073.9C2428.21 2073.9 2433.33 2072.93 2436.6 2072.26C2440.05 2071.55 2445.41 2070.36 2445.41 2070.36C2445.41 2070.36 2450.89 2068.83 2454.38 2067.77C2457.46 2066.83 2462.24 2065.27 2462.24 2065.27L2478.29 2058.91L2486.48 2055.04C2486.48 2055.04 2494.95 2050.81 2500.2 2047.77C2500.2 2047.77 2511.16 2041.11 2517.82 2036.33C2524.53 2031.51 2528.14 2028.59 2534.39 2023.18C2540.26 2018.09 2543.51 2015.16 2548.89 2009.55C2556.17 2001.98 2559.92 1997.39 2566.15 1988.94C2570.86 1982.54 2573.25 1978.76 2577.44 1972C2577.91 1971.24 2578.36 1970.52 2578.79 1969.84C2581.52 1965.47 2583.41 1962.44 2586.02 1957.32C2588.21 1953.03 2589.41 1950.18 2591.03 1946.32C2591.39 1945.45 2591.78 1944.53 2592.2 1943.53C2592.62 1942.54 2593.01 1941.64 2593.37 1940.79C2594.91 1937.21 2596.06 1934.53 2597.53 1930.26C2598.78 1926.65 2599.46 1924.21 2600.31 1921.11C2600.57 1920.17 2600.85 1919.16 2601.17 1918.04C2601.4 1917.22 2601.61 1916.46 2601.82 1915.74C2602.77 1912.4 2603.46 1909.96 2604.37 1906.08C2605.34 1901.91 2605.81 1899.55 2606.56 1895.34C2607.19 1891.79 2607.53 1889.8 2608 1886.23C2608.52 1882.22 2608.71 1879.66 2608.96 1876.13C2609.02 1875.4 2609.08 1874.62 2609.14 1873.78C2609.17 1873.4 2609.2 1873.03 2609.22 1872.68C2609.48 1869.29 2609.65 1867.08 2609.79 1863.4C2609.96 1859.02 2609.92 1852.17 2609.92 1852.17L2777.33 1773.12C2777.33 1773.12 2805.36 1753.37 2816.16 1735.11C2826.3 1717.97 2830.69 1686.23 2830.69 1686.23L2851.13 769.867C2851.13 769.867 3029.27 862.077 3038.8 868.612C3048.33 875.146 3070.04 896.113 3083.63 918.513C3096.72 940.092 3104.66 963.279 3106.72 978.872C3108.77 994.466 3080.36 1623.46 3080.36 1623.46L3271.51 1505.72C3271.51 1505.72 3292.55 1495.06 3308.7 1474.58C3321.71 1458.09 3323.19 1422.79 3323.19 1422.79L3332.71 856.694C3332.71 856.694 3334.02 824.177 3305 782.153C3303.04 779.305 3301.22 776.61 3299.49 774.044C3288.06 757.081 3280.44 745.782 3258.47 733.301C3233.17 718.932 2639.74 358.049 2639.74 358.049L2612.65 1505.77C2612.65 1505.77 2603.6 1553.21 2588.61 1584C2577.22 1607.38 2568.27 1619.85 2549.62 1637.97ZM2280.94 1924.43C2318.02 1984.62 2396.87 2003.36 2457.06 1966.29C2517.25 1929.21 2535.99 1850.36 2498.91 1790.17C2461.84 1729.98 2382.99 1711.24 2322.8 1748.32C2262.61 1785.4 2243.87 1864.24 2280.94 1924.43Z" fill="url(#paint3_linear_212_103)"/>
<path fill-rule="evenodd" clip-rule="evenodd" d="M1450.03 1192.71C1481.54 1201.11 1500.16 1218.77 1500.16 1218.77C1500.16 1218.77 1500.56 1227.65 1501.05 1233.32C1502 1244.5 1502.6 1250.8 1504.84 1261.78C1507.61 1275.32 1509.88 1282.82 1514.82 1295.71C1517.95 1303.88 1519.93 1308.4 1523.89 1316.21C1529.07 1326.46 1532.51 1331.96 1538.91 1341.49L1539.35 1342.15H1539.36C1543.23 1347.91 1545.54 1351.35 1550.08 1356.88C1554.31 1362.04 1557 1364.77 1561.57 1369.43H1561.58L1561.95 1369.81C1568.05 1376.03 1571.65 1379.37 1578.25 1385.05L1578.36 1385.14L1578.38 1385.16C1579.13 1385.81 1579.85 1386.43 1580.54 1387.02C1585.4 1391.18 1588.79 1393.98 1594.6 1398.06C1602.13 1403.34 1606.67 1405.86 1614.76 1410.23C1623.87 1415.16 1629.1 1417.76 1638.73 1421.57C1648.49 1425.43 1654.15 1427.17 1664.32 1429.8C1675.56 1432.72 1682 1433.95 1693.52 1435.41C1705.84 1436.97 1712.84 1437.57 1725.25 1437.25C1734.02 1437.03 1738.94 1436.52 1747.64 1435.37C1757.98 1434.01 1763.78 1433 1773.89 1430.42C1782.99 1428.11 1788.01 1426.46 1796.81 1423.18C1804.87 1420.18 1809.3 1418.22 1817.08 1414.56L1817.47 1414.37C1818.44 1413.92 1819.36 1413.48 1820.24 1413.07C1826.38 1410.16 1830.63 1408.05 1837.15 1404.14C1843.06 1400.59 1846.29 1398.42 1851.84 1394.31C1858.31 1389.52 1861.76 1386.58 1867.7 1381.14C1876.68 1372.92 1881.32 1367.83 1889.08 1358.45C1894.26 1352.19 1897.06 1348.58 1901.64 1341.88C1907.6 1333.15 1910.54 1327.97 1915.43 1318.61C1920.5 1308.91 1923.34 1303.39 1927.02 1293.08C1929.34 1286.55 1930.35 1282.68 1932.04 1276.16L1932.22 1275.49C1935.23 1263.89 1936.68 1257.28 1938.28 1245.4C1939.39 1237.24 1939.88 1232.63 1940.18 1224.41C1940.44 1217.34 1940.36 1213.36 1940.02 1206.29C1939.72 1200.07 1939.45 1196.58 1938.71 1190.39C1938.08 1185.12 1937.68 1182.16 1936.69 1176.94C1935.73 1171.91 1935.04 1169.11 1933.76 1164.15C1932.63 1159.76 1931.86 1157.21 1930.63 1153.1L1930.62 1153.09L1930.37 1152.24C1930.03 1151.12 1929.74 1150.13 1929.47 1149.19C1928.64 1146.36 1927.98 1144.08 1926.75 1140.78C1925.69 1137.93 1924.83 1136.02 1923.81 1133.75C1923.39 1132.81 1922.94 1131.8 1922.44 1130.65C1921.81 1129.21 1921.27 1127.93 1920.76 1126.73C1919.32 1123.36 1918.16 1120.62 1916.17 1116.68C1913.44 1111.26 1911.72 1108.32 1908.56 1103.14C1904.73 1096.88 1902.41 1093.47 1898.07 1087.55C1895.91 1084.58 1892.38 1080.08 1892.38 1080.08L1886.45 1073.05C1886.45 1073.05 1882.99 1069.16 1880.74 1066.7C1878.36 1064.1 1874.58 1060.11 1874.58 1060.11C1874.58 1060.11 1870.45 1056.19 1867.75 1053.74C1865.36 1051.58 1861.57 1048.28 1861.57 1048.28L1847.87 1037.77L1840.35 1032.73C1840.35 1032.73 1832.36 1027.64 1827.06 1024.7C1827.06 1024.7 1815.73 1018.71 1808.2 1015.45C1800.62 1012.17 1796.26 1010.56 1788.41 1007.98C1781.03 1005.55 1776.84 1004.28 1769.27 1002.54C1759.04 1000.18 1753.17 999.316 1742.72 998.312C1734.81 997.552 1730.33 997.45 1722.39 997.319C1721.49 997.304 1720.64 997.289 1719.84 997.274C1714.68 997.178 1711.11 997.111 1705.39 997.497C1700.58 997.82 1697.51 998.258 1693.37 998.849C1692.44 998.982 1691.45 999.123 1690.37 999.272C1689.31 999.419 1688.34 999.55 1687.42 999.673C1683.56 1000.19 1680.67 1000.58 1676.25 1001.51C1672.51 1002.29 1670.07 1002.97 1666.97 1003.82C1666.03 1004.08 1665.02 1004.36 1663.9 1004.67C1663.07 1004.89 1662.31 1005.09 1661.59 1005.29C1658.24 1006.19 1655.78 1006.84 1651.99 1008.06C1647.91 1009.36 1645.65 1010.18 1641.65 1011.69C1638.28 1012.97 1636.4 1013.7 1633.1 1015.14C1629.39 1016.75 1627.09 1017.9 1623.93 1019.49C1623.27 1019.82 1622.58 1020.17 1621.83 1020.55C1621.48 1020.72 1621.16 1020.88 1620.84 1021.04C1617.79 1022.56 1615.81 1023.55 1612.58 1025.32C1608.74 1027.43 1602.88 1030.98 1602.88 1030.98L1449.09 927.908C1449.09 927.908 1417.75 913.997 1396.53 914.104C1376.61 914.204 1347.13 926.739 1347.13 926.739L550.29 1379.71C550.29 1379.71 537.949 1179.5 538.663 1167.97C539.378 1156.44 546.219 1127.04 558.465 1103.88C570.263 1081.57 586.081 1062.85 598.407 1053.07C610.732 1043.3 1165.07 744.721 1165.07 744.721L965.884 641.151C965.884 641.151 945.94 628.567 920.068 625.217C899.239 622.52 868.184 639.378 868.184 639.378L377.522 921.877C377.522 921.877 348.947 937.45 327.787 983.93C326.352 987.08 324.972 990.023 323.659 992.824C314.974 1011.35 309.189 1023.68 309.759 1048.95C310.417 1078.03 305.443 1772.56 305.443 1772.56L1304.23 1206.5C1304.23 1206.5 1349.59 1189.9 1383.7 1186.96C1409.61 1184.73 1424.91 1186.01 1450.03 1192.71ZM1833.81 1276.17C1866.42 1213.45 1842.01 1136.17 1779.29 1103.55C1716.57 1070.94 1639.29 1095.35 1606.68 1158.07C1574.06 1220.79 1598.47 1298.07 1661.19 1330.68C1723.91 1363.3 1801.19 1338.89 1833.81 1276.17Z" fill="url(#paint4_linear_212_103)"/>
<path fill-rule="evenodd" clip-rule="evenodd" d="M2297.16 2261.42C2265.65 2253.02 2247.03 2235.35 2247.03 2235.35C2247.03 2235.35 2246.63 2226.47 2246.15 2220.8C2245.19 2209.63 2244.59 2203.33 2242.35 2192.34C2239.59 2178.81 2237.32 2171.31 2232.38 2158.41C2229.24 2150.24 2227.26 2145.73 2223.31 2137.92C2218.12 2127.67 2214.69 2122.17 2208.28 2112.63L2207.84 2111.98C2203.97 2106.22 2201.66 2102.78 2197.12 2097.25C2192.88 2092.09 2190.19 2089.35 2185.62 2084.7V2084.69L2185.25 2084.31C2179.14 2078.09 2175.55 2074.76 2168.94 2069.07L2168.84 2068.98L2168.82 2068.97C2168.06 2068.31 2167.34 2067.7 2166.66 2067.11C2161.8 2062.94 2158.41 2060.14 2152.6 2056.07C2145.07 2050.79 2140.53 2048.27 2132.44 2043.89C2123.33 2038.97 2118.09 2036.37 2108.47 2032.56C2098.71 2028.69 2093.04 2026.96 2082.88 2024.32C2071.63 2021.41 2065.19 2020.18 2053.67 2018.72C2041.36 2017.16 2034.35 2016.56 2021.94 2016.87C2013.17 2017.09 2008.25 2017.61 1999.55 2018.75C1989.21 2020.11 1983.41 2021.13 1973.31 2023.7C1964.21 2026.02 1959.18 2027.67 1950.38 2030.94C1942.32 2033.94 1937.9 2035.9 1930.12 2039.57L1929.72 2039.75C1928.75 2040.21 1927.84 2040.64 1926.96 2041.06C1920.81 2043.96 1916.56 2046.07 1910.05 2049.98C1904.13 2053.54 1900.9 2055.71 1895.36 2059.81C1888.89 2064.6 1885.43 2067.54 1879.49 2072.98C1870.51 2081.2 1865.88 2086.3 1858.11 2095.68C1852.93 2101.93 1850.13 2105.54 1845.55 2112.25C1839.59 2120.97 1836.65 2126.15 1831.76 2135.51C1826.69 2145.22 1823.85 2150.73 1820.18 2161.05C1817.85 2167.57 1816.85 2171.44 1815.15 2177.96L1814.98 2178.63C1811.96 2190.24 1810.52 2196.85 1808.91 2208.73C1807.81 2216.88 1807.31 2221.49 1807.01 2229.72C1806.75 2236.79 1806.83 2240.77 1807.17 2247.83C1807.47 2254.06 1807.75 2257.55 1808.48 2263.73C1809.11 2269.01 1809.52 2271.97 1810.51 2277.18C1811.46 2282.22 1812.16 2285.01 1813.43 2289.98C1814.56 2294.36 1815.33 2296.92 1816.57 2301.03V2301.04L1816.82 2301.88C1817.16 2303 1817.45 2304 1817.72 2304.94C1818.55 2307.77 1819.21 2310.04 1820.44 2313.35C1821.5 2316.19 1822.36 2318.11 1823.38 2320.38C1823.8 2321.32 1824.25 2322.32 1824.76 2323.48C1825.38 2324.92 1825.93 2326.19 1826.44 2327.39C1827.87 2330.76 1829.04 2333.51 1831.02 2337.44C1833.75 2342.86 1835.47 2345.81 1838.63 2350.98C1842.46 2357.25 1844.79 2360.66 1849.12 2366.58C1851.29 2369.54 1854.82 2374.05 1854.82 2374.05L1860.74 2381.08C1860.74 2381.08 1864.2 2384.97 1866.46 2387.43C1868.84 2390.02 1872.61 2394.01 1872.61 2394.01C1872.61 2394.01 1876.74 2397.93 1879.45 2400.38C1881.83 2402.55 1885.62 2405.85 1885.62 2405.85L1899.32 2416.35L1906.84 2421.39C1906.84 2421.39 1914.83 2426.49 1920.13 2429.43C1920.13 2429.43 1931.47 2435.41 1939 2438.67C1946.58 2441.95 1950.94 2443.56 1958.78 2446.14C1966.17 2448.57 1970.35 2449.85 1977.93 2451.59C1988.16 2453.95 1994.02 2454.81 2004.47 2455.81C2012.39 2456.57 2016.86 2456.67 2024.81 2456.81C2025.71 2456.82 2026.55 2456.84 2027.36 2456.85C2032.51 2456.95 2036.08 2457.01 2041.81 2456.63C2046.62 2456.3 2049.68 2455.87 2053.83 2455.28C2054.76 2455.14 2055.75 2455 2056.82 2454.85C2057.88 2454.71 2058.85 2454.58 2059.77 2454.45C2063.64 2453.93 2066.53 2453.54 2070.94 2452.62C2074.68 2451.84 2077.12 2451.16 2080.22 2450.3C2081.17 2450.04 2082.17 2449.76 2083.29 2449.46C2084.12 2449.23 2084.88 2449.03 2085.61 2448.84C2088.96 2447.94 2091.41 2447.28 2095.2 2446.07C2099.28 2444.76 2101.54 2443.95 2105.54 2442.43C2108.91 2441.16 2110.8 2440.43 2114.1 2438.99C2117.8 2437.38 2120.1 2436.22 2123.26 2434.63C2123.92 2434.3 2124.61 2433.95 2125.37 2433.58C2125.71 2433.41 2126.04 2433.24 2126.36 2433.08C2129.4 2431.56 2131.38 2430.57 2134.61 2428.8C2138.46 2426.69 2144.32 2423.14 2144.32 2423.14L2298.11 2526.22C2298.11 2526.22 2329.45 2540.13 2350.67 2540.02C2370.58 2539.92 2400.07 2527.39 2400.07 2527.39L3196.9 2074.41C3196.9 2074.41 3209.24 2274.62 3208.53 2286.15C3207.82 2297.69 3200.97 2327.09 3188.73 2350.25C3176.93 2372.56 3161.11 2391.28 3148.79 2401.05C3136.46 2410.82 2582.13 2709.4 2582.13 2709.4L2781.31 2812.97C2781.31 2812.97 2801.25 2825.56 2827.13 2828.91C2847.95 2831.6 2879.01 2814.75 2879.01 2814.75L3369.67 2532.25C3369.67 2532.25 3398.25 2516.67 3419.41 2470.2C3420.84 2467.04 3422.22 2464.1 3423.53 2461.3C3432.22 2442.78 3438 2430.44 3437.43 2405.18C3436.78 2376.1 3441.75 1681.57 3441.75 1681.57L2442.97 2247.63C2442.97 2247.63 2397.61 2264.22 2363.49 2267.17C2337.59 2269.4 2322.29 2268.12 2297.16 2261.42ZM1913.39 2177.96C1880.77 2240.68 1905.18 2317.96 1967.9 2350.57C2030.62 2383.18 2107.9 2358.78 2140.52 2296.06C2173.13 2233.34 2148.72 2156.05 2086 2123.44C2023.28 2090.83 1946 2115.24 1913.39 2177.96Z" fill="url(#paint5_linear_212_103)"/>
<defs>
<linearGradient id="paint0_linear_212_103" x1="1279.86" y1="1886.42" x2="2672.84" y2="1897.86" gradientUnits="userSpaceOnUse">
<stop stop-color="#8409FF"/>
<stop offset="1" stop-color="#E52DFF"/>
</linearGradient>
<linearGradient id="paint1_linear_212_103" x1="1080.64" y1="13.7637" x2="2473.62" y2="25.2063" gradientUnits="userSpaceOnUse">
<stop stop-color="#8409FF"/>
<stop offset="1" stop-color="#E52DFF"/>
</linearGradient>
<linearGradient id="paint2_linear_212_103" x1="414.471" y1="1376.68" x2="1583.09" y2="1383.96" gradientUnits="userSpaceOnUse">
<stop stop-color="#8409FF"/>
<stop offset="1" stop-color="#E52DFF"/>
</linearGradient>
<linearGradient id="paint3_linear_212_103" x1="2169.42" y1="358.049" x2="3338.03" y2="365.327" gradientUnits="userSpaceOnUse">
<stop stop-color="#8409FF"/>
<stop offset="1" stop-color="#E52DFF"/>
</linearGradient>
<linearGradient id="paint4_linear_212_103" x1="305.443" y1="624.925" x2="1947.58" y2="646.459" gradientUnits="userSpaceOnUse">
<stop stop-color="#8409FF"/>
<stop offset="1" stop-color="#E52DFF"/>
</linearGradient>
<linearGradient id="paint5_linear_212_103" x1="1806.86" y1="1681.57" x2="3448.99" y2="1703.1" gradientUnits="userSpaceOnUse">
<stop stop-color="#8409FF"/>
<stop offset="1" stop-color="#E52DFF"/>
</linearGradient>
</defs>
</svg>
